<?xml version="1.0" encoding="UTF-8"?>
<svg version="1.1" xmlns="http://www.w3.org/2000/svg" width="225" height="225">
<path d="M0 0 C74.25 0 148.5 0 225 0 C225 74.25 225 148.5 225 225 C150.75 225 76.5 225 0 225 C0 150.75 0 76.5 0 0 Z " fill="#4E2984" transform="translate(0,0)"/>
<path d="M0 0 C24.12969584 -2.25025858 24.12969584 -2.25025858 29.7890625 2.4375 C32.20521002 5.08788504 34.05918351 8.06363858 35.85791016 11.15673828 C37.7800925 14.25902061 40.21454488 16.89726076 42.625 19.625 C43.55003653 20.71085629 44.47197061 21.79936399 45.390625 22.890625 C45.83212891 23.41462891 46.27363281 23.93863281 46.72851562 24.47851562 C48.6339046 26.75854329 50.50387411 29.06682281 52.375 31.375 C56.54156423 36.49733524 60.86201281 41.47417378 65.20043945 46.45043945 C69.12489097 50.96215363 72.93426783 55.55325555 76.69921875 60.19921875 C79.87671958 64.06724608 83.13984174 67.85881643 86.4050293 71.65283203 C90.77613705 76.73214698 95.1079356 81.84350166 99.4296875 86.96484375 C101.33320662 89.21261633 103.24302428 91.45401258 105.16064453 93.68969727 C105.69432648 94.31199722 106.22800842 94.93429718 106.77786255 95.57545471 C107.18116791 96.04555466 107.58447327 96.5156546 108 97 C108.02315071 86.88187997 108.04092905 76.76376622 108.05181217 66.64562511 C108.05703501 61.94757846 108.06412183 57.24954991 108.07543945 52.55151367 C108.08628956 48.01928339 108.09228136 43.48707053 108.09487724 38.95482826 C108.09672765 37.2240401 108.10034093 35.49325291 108.10573006 33.76247215 C108.11296862 31.34187113 108.11398974 28.9213425 108.11352539 26.50073242 C108.1189183 25.42287476 108.1189183 25.42287476 108.12442017 24.32324219 C108.11805582 21.26562905 107.97532417 18.92597252 107 16 C106.28714844 15.87882812 105.57429688 15.75765625 104.83984375 15.6328125 C99.44765159 14.68936031 94.22764328 13.62637791 89 12 C89 8.37 89 4.74 89 1 C107.15 1 125.3 1 144 1 C144 4.3 144 7.6 144 11 C141.2092793 11.83661862 138.41751988 12.66942737 135.625 13.5 C134.8309375 13.73847656 134.036875 13.97695313 133.21875 14.22265625 C132.45820313 14.44824219 131.69765625 14.67382812 130.9140625 14.90625 C130.2123291 15.11572266 129.5105957 15.32519531 128.78759766 15.54101562 C127 16 127 16 125 16 C125 57.91 125 99.82 125 143 C114 143 114 143 110.90625 140.61328125 C110.07017995 139.53861966 109.26893289 138.43617828 108.5 137.3125 C107.58689989 136.11254831 106.6728084 134.91335047 105.7578125 133.71484375 C105.0776709 132.78841064 105.0776709 132.78841064 104.38378906 131.84326172 C102.17958249 128.90717146 99.77317666 126.15284959 97.375 123.375 C94.06000126 119.47254048 90.7917211 115.5364784 87.5625 111.5625 C83.60491812 106.69870975 79.53457554 101.94118769 75.44165039 97.19165039 C71.66665609 92.8019965 67.99271539 88.33885229 64.34375 83.84375 C61.60697862 80.52313406 58.80893615 77.25956291 56 74 C51.73745837 69.05277717 47.55691803 64.05096455 43.44335938 58.97851562 C40.73547278 55.67753477 37.98498751 52.41555714 35.22265625 49.16015625 C34.71802856 48.56464966 34.21340088 47.96914307 33.69348145 47.35559082 C32.46276046 45.90335464 31.23144247 44.45162444 30 43 C29.93055402 53.63961801 29.87721624 64.27918229 29.84456348 74.9189806 C29.82889346 79.85923569 29.80763082 84.79933597 29.77368164 89.73950195 C29.74113583 94.50516473 29.72315706 99.2706784 29.71536827 104.03644371 C29.70981616 105.85656775 29.69897448 107.67668343 29.68280983 109.49674416 C29.66109888 112.04203691 29.65803039 114.58670994 29.65942383 117.13208008 C29.648638 117.88805481 29.63785217 118.64402954 29.6267395 119.4229126 C29.63713976 123.40122271 29.63713976 123.40122271 31.3000946 126.92094421 C34.15386412 128.73244297 37.37229075 129.36073561 40.625 130.125 C47.89527027 131.89527027 47.89527027 131.89527027 49 133 C49 135.97 49 138.94 49 142 C31.18 142 13.36 142 -5 142 C-5 138.7 -5 135.4 -5 132 C-2.39688008 131.32900016 0.20735398 130.66304662 2.8125 130 C3.55048828 129.80921875 4.28847656 129.6184375 5.04882812 129.421875 C8.10535341 128.64737086 10.83373478 128 14 128 C14.17109604 114.5513767 14.27111695 101.10423197 14.28240681 87.65447044 C14.289841 81.40776963 14.32101479 75.16313248 14.40795898 68.91699219 C14.49109766 62.87968762 14.50989447 56.84518613 14.48558617 50.80739212 C14.48736713 48.51339336 14.51166287 46.21928942 14.55968666 43.92579269 C15.12155936 29.19430612 15.12155936 29.19430612 8.24531078 16.78481483 C6.44455886 15.03330304 6.44455886 15.03330304 4.54873371 13.52809715 C0.15529049 9.92232307 0.15529049 9.92232307 -0.3997097 6.62598801 C-0.4003616 4.38012232 -0.28551657 2.22631772 0 0 Z " fill="#FDFDFD" transform="translate(43,41)"/>
</svg>
